<svg width="45" height="26" viewBox="0 0 45 26" fill="none" xmlns="http://www.w3.org/2000/svg">
<path d="M1.64588 1.38541C2.21879 0.81249 2.89713 0.526031 3.68088 0.526031C4.46463 0.526031 5.14219 0.81249 5.71358 1.38541L22.5 18.1719L39.3438 1.32811C39.8785 0.793392 40.5469 0.526031 41.349 0.526031C42.1511 0.526031 42.8386 0.81249 43.4115 1.38541C43.9844 1.95832 44.2709 2.63666 44.2709 3.42041C44.2709 4.20416 43.9844 4.88173 43.4115 5.45311L24.1042 24.7031C23.875 24.9323 23.6268 25.095 23.3594 25.1912C23.0921 25.2875 22.8056 25.3349 22.5 25.3333C22.1945 25.3333 21.908 25.2852 21.6407 25.189C21.3733 25.0927 21.125 24.9308 20.8959 24.7031L1.58858 5.39582C1.05386 4.8611 0.786503 4.20186 0.786503 3.41811C0.786503 2.63436 1.07296 1.9568 1.64588 1.38541Z" fill="white"/>
</svg>
